<?xml version="1.0" encoding="iso-8859-1"?>
<!-- Generator: Adobe Illustrator 19.0.0, SVG Export Plug-In . SVG Version: 6.00 Build 0)  -->
<svg version="1.1" id="Layer_1" xmlns="http://www.w3.org/2000/svg" xmlns:xlink="http://www.w3.org/1999/xlink" x="0px" y="0px"
	 viewBox="0 0 442.398 442.398" style="enable-background:new 0 0 442.398 442.398;" xml:space="preserve">
<g>
	<path style="fill:#F9D950;" d="M338.714,353.008v89.39h-235.03v-89.39c0-1.11,0.02-2.22,0.07-3.31
		c1.53-38.14,29.38-69.49,65.88-76.39c4.91-0.93,9.99-1.42,15.17-1.42h72.79c5.18,0,10.26,0.49,15.17,1.42
		c36.5,6.9,64.35,38.25,65.88,76.39C338.694,350.788,338.714,351.898,338.714,353.008z"/>
	<path style="fill:#FFD3AE;" d="M309.694,106.898v74c0,30.35-15.28,57.13-38.56,73.07c-0.19,0.14-0.39,0.27-0.58,0.4
		c-14.1,9.49-31.08,15.03-49.36,15.03s-35.26-5.54-49.36-15.03c-0.19-0.13-0.39-0.26-0.58-0.4c-18.77-12.85-32.34-32.75-36.89-55.89
		c-1.1-5.56-1.67-11.3-1.67-17.18v-74c0-48.88,39.62-88.5,88.5-88.5c24.43,0,46.56,9.91,62.58,25.92
		C299.784,60.328,309.694,82.458,309.694,106.898z"/>
	<path style="fill:#E5B591;" d="M302.074,133.39v28.38c0,12.36-5.4,24.11-14.8,32.15l-14.74,12.62c-14.97,12.81-38.07,7.22-45.54-11
		c-2.71-6.62-8.76-9.93-14.8-9.93c-6.05,0-12.09,3.31-14.8,9.93c-7.47,18.22-30.58,23.81-45.54,11l-14.75-12.62
		c-0.96-0.82-1.87-1.67-2.74-2.57c-1.1-5.56-1.67-11.3-1.67-17.18v-41.047l23.22-4.005c9.33-3.77,19.3-1.118,29.36-1.118
		l53.83-11.262c10.06,0,20.03-10.738,29.36-6.968l24.31,9.83C298.394,121.87,302.074,127.33,302.074,133.39z"/>
	<path style="fill:#FFFFFF;" d="M246.426,216.843c0,2.98-0.52,5.83-1.48,8.49c-0.45,1.28-1.01,2.51-1.65,3.68
		c-4.3,7.78-12.58,13.05-22.1,13.05c-9.53,0-17.81-5.27-22.11-13.05c-0.65-1.17-1.21-2.4-1.66-3.68c-0.96-2.66-1.47-5.51-1.47-8.49
		H246.426z"/>
	<g>
		<path style="fill:#333333;" d="M221.194,18.398c0,0-11.49-18.398-38.823-18.398l8.667,16.667c0,0-27.333-10-56.667,8.667l16.667,8
			c0,0-35.333,8-39.333,38l18.667-4.667c0,0-20.667,18-21.333,54l23.656-13.769l-12.323,23.769l12.323-3.817h79.01h18.98h79.01
			l12.323,3.817l-12.323-23.769l23.657,13.769c-0.667-36-21.333-54-21.333-54l18.667,4.667c-4-30-39.333-38-39.333-38l16.667-8
			c-29.333-18.667-56.667-8.667-56.667-8.667L260.017,0C232.684,0,221.194,18.398,221.194,18.398"/>
	</g>
	<path style="fill:#333333;" d="M244.951,225.333c-0.45,1.28-1.01,2.51-1.65,3.68c-4.3,7.78-12.58,13.05-22.1,13.05
		c-9.53,0-17.81-5.27-22.11-13.05c-0.65-1.17-1.21-2.4-1.66-3.68H244.951z"/>
	<g>
		<rect x="141.682" y="348.548" style="fill:#D6BA47;" width="5" height="93.846"/>
		<rect x="295.712" y="348.548" style="fill:#D6BA47;" width="5" height="93.846"/>
	</g>
	<path style="fill:#F9D950;" d="M235.992,195.268L235.992,195.268c7.467,18.225,30.576,23.807,45.539,11l14.743-12.619
		c9.395-8.041,14.803-19.789,14.803-32.155v-28.371c0-6.066-3.682-11.526-9.306-13.799l-24.304-9.825
		c-9.33-3.772-19.299-5.711-29.363-5.711h-26.913h-26.913c-10.064,0-20.033,1.939-29.363,5.711l-24.304,9.825
		c-5.624,2.274-9.306,7.733-9.306,13.799v28.371c0,12.366,5.408,24.114,14.803,32.155l14.743,12.619
		c14.963,12.807,38.072,7.225,45.539-11l0,0C211.814,182.026,230.567,182.026,235.992,195.268z"/>
	<path style="fill:#64B0ED;" d="M298.124,139.038v22.46c0,8.58-3.75,16.73-10.27,22.31l-14.74,12.62
		c-3.71,3.18-7.66,3.84-10.31,3.84c-6.54,0-12.36-3.89-14.83-9.91c-4.29-10.49-14.15-17.4-25.38-17.93
		c-0.46-0.03-0.93-0.04-1.4-0.04c-11.8,0-22.31,7.05-26.79,17.97c-2.47,6.02-8.29,9.91-14.82,9.91c-0.01,0-0.01,0-0.01,0
		c-2.65,0-6.59-0.66-10.3-3.84l-14.75-12.62c-6.52-5.58-10.27-13.73-10.27-22.32v-22.45c0-4.37,2.65-8.29,6.69-9.92l18.82-7.61
		c5.32-2.16,10.84-3.58,16.47-4.28c2.66-0.33,5.34-0.49,8.04-0.49h53.83c8.4,0,16.72,1.62,24.51,4.77l18.82,7.61
		C295.484,130.748,298.124,134.668,298.124,139.038z"/>
	<path style="opacity:0.26;fill:#FFFFFF;enable-background:new    ;" d="M298.124,139.038v22.46c0,8.58-3.75,16.73-10.27,22.31
		l-14.74,12.62c-3.71,3.18-7.66,3.84-10.31,3.84c-6.54,0-12.36-3.89-14.83-9.91c-4.29-10.49-14.15-17.4-25.38-17.93l-36.36-55.2
		c2.66-0.33,5.34-0.49,8.04-0.49h53.83c8.4,0,16.72,1.62,24.51,4.77l18.82,7.61C295.484,130.748,298.124,134.668,298.124,139.038z"
		/>
	<path style="fill:#F9D950;" d="M127.734,165.121h3.57v-31.998h-3.57c-3.345,0-6.057,2.712-6.057,6.057v19.884
		C121.677,162.409,124.389,165.121,127.734,165.121z"/>
	<path style="fill:#F9D950;" d="M311.077,165.121h3.57c3.345,0,6.057-2.712,6.057-6.057V139.18c0-3.345-2.712-6.057-6.057-6.057
		h-3.57V165.121z"/>
	<path style="fill:#F9D950;" d="M269.394,253.968h-96.393c-5.08,0-9.198,4.118-9.198,9.198v22.622h114.79v-22.622
		C278.592,258.086,274.474,253.968,269.394,253.968z"/>
	<path style="fill:#E6E6E6;" d="M221.194,308.288v5h-76.76l-40.75,43.82v-4.1c0-1.11,0.02-2.22,0.07-3.31l38.5-41.41H221.194z"/>
	<path style="fill:#E6E6E6;" d="M338.714,353.008v4.1l-40.75-43.82h-76.77v-5h78.95l38.5,41.41
		C338.694,350.788,338.714,351.898,338.714,353.008z"/>
	<rect x="218.697" y="253.968" style="fill:#D6BA47;" width="5" height="188.427"/>
	<g>
		<path style="fill:#333333;" d="M168.567,110.674c0,0-3.57,19.565,5.333,54.66c0,0,15.333-45.333,57.333-63.333
			C231.234,102,168.567,86.014,168.567,110.674z"/>
		<path style="fill:#333333;" d="M273.82,110.674c0,0,3.57,19.565-5.333,54.66c0,0-15.333-45.333-57.333-63.333
			C211.154,102,273.82,86.014,273.82,110.674z"/>
	</g>
	<circle style="fill:#D6BA47;" cx="221.197" cy="276" r="10.34"/>
	<circle style="fill:#64B0ED;" cx="266.027" cy="352.503" r="18.503"/>
	<circle style="fill:#529DD1;" cx="266.027" cy="352.503" r="12.333"/>
	<path style="fill:#D6BA47;" d="M225.073,302.667h-7.751c-2.442,0-4.343-2.119-4.079-4.547l1.954-17.953h12l1.954,17.953
		C229.415,300.547,227.514,302.667,225.073,302.667z"/>
	<rect x="163.802" y="271" style="fill:#D6BA47;" width="25.902" height="3.641"/>
	<rect x="252.691" y="271" style="fill:#D6BA47;" width="25.902" height="3.641"/>
</g>
<g>
</g>
<g>
</g>
<g>
</g>
<g>
</g>
<g>
</g>
<g>
</g>
<g>
</g>
<g>
</g>
<g>
</g>
<g>
</g>
<g>
</g>
<g>
</g>
<g>
</g>
<g>
</g>
<g>
</g>
</svg>
