<?xml version="1.0" encoding="iso-8859-1"?>
<!-- Generator: Adobe Illustrator 19.0.0, SVG Export Plug-In . SVG Version: 6.00 Build 0)  -->
<svg version="1.1" id="Capa_1" xmlns="http://www.w3.org/2000/svg" xmlns:xlink="http://www.w3.org/1999/xlink" x="0px" y="0px"
	 viewBox="0 0 512.001 512.001" style="enable-background:new 0 0 512.001 512.001;" xml:space="preserve">
<g>
	<g>
		<path d="M289.935,345.208c-3.172-2.672-7.906-2.272-10.578,0.901c-8.216,9.727-13.76,21.135-16.272,33.384V69.207
			c0-38.078-30.973-69.05-69.05-69.05c-38.068,0-69.05,30.973-69.05,69.05v312.047c-10.552,1.103-35.709-4.955-61.845,14.811
			c-5.714,4.323-2.652,13.49,4.543,13.49c1.571,0,3.162-0.49,4.523-1.521c21.278-16.109,41.896-10.731,52.778-11.769
			c42.311,0,95.623,0,144.305,0c3.893,0,7.135-2.972,7.475-6.845c1.091-12.409,5.954-24.037,14.06-33.635
			C293.498,352.624,293.098,347.89,289.935,345.208z M139.996,69.207c0-39.629,41.48-65.768,77.126-48.846l-77.126,79.158V69.207z
			 M222.476,381.256h-56.871c-5.703-6.984-0.716-17.633,8.416-17.633h40.029C223.221,363.622,228.142,374.314,222.476,381.256z
			 M248.075,381.256h-9.087c4.503-16.216-7.798-32.644-24.938-32.644h-40.029c-17.061,0-29.448,16.335-24.928,32.644h-9.097v-260.22
			l89.865-92.237c11.158,9.907,18.213,24.348,18.213,40.409V381.256z"/>
	</g>
</g>
<g>
	<g>
		<path d="M474.62,429.521c0.07-2.021,0.03-0.48,0.04-34.775c0-41.67-33.895-75.555-75.555-75.555H337.06
			c-10.938,0-21.516,2.312-31.433,6.885c-3.763,1.731-5.404,6.195-3.673,9.957c1.741,3.763,6.195,5.404,9.957,3.673
			c19.314-8.906,30.322-4.183,87.194-5.504c33.384,0,60.544,27.16,60.544,60.544c-0.17,31.683,0.43,33.815-0.63,41.14
			c-0.65,4.513,2.852,8.576,7.435,8.576h5.824c13.52,0,24.518,10.998,24.518,24.518v3.493c0,13.52-10.998,24.518-24.518,24.518
			c-12.813,0-422.88,0-432.555,0c-13.52,0-24.518-10.998-24.518-24.518v-3.493c0-13.52,10.998-24.518,24.518-24.518
			c1.361-0.29,9.377,1.641,11.358-5.494c1.031-3.683,2.432-7.275,4.173-10.698c1.881-3.693,0.41-8.216-3.282-10.087
			c-3.693-1.881-8.216-0.41-10.097,3.282c-1.321,2.592-2.482,5.274-3.493,8.006c-21.175,0.701-38.188,18.153-38.188,39.509v3.493
			c0,21.806,17.733,39.529,39.529,39.529c6.637,0,424.259,0,432.555,0c21.796,0,39.529-17.723,39.529-39.529v-3.493
			C511.807,447.963,495.335,430.731,474.62,429.521z"/>
	</g>
</g>
<g>
	<g>
		<path d="M231.322,127.13c-3.08-2.772-7.826-2.524-10.6,0.557c-2.773,3.08-2.524,7.826,0.557,10.6
			c7.391,6.656,2.678,18.893-7.228,18.893h-40.029c-5.978,0-10.841-4.864-10.841-10.842c0-5.978,4.863-10.841,10.841-10.841h24.436
			c4.146,0,7.505-3.359,7.505-7.505c0-4.146-3.359-7.505-7.505-7.505h-24.436c-14.254,0-25.852,11.597-25.852,25.852
			c0,14.255,11.597,25.852,25.852,25.852h40.029C237.582,172.189,248.939,142.986,231.322,127.13z"/>
	</g>
</g>
<g>
	<g>
		<path d="M39.843,269.299c-14.623,0-26.519,11.897-26.519,26.519c0,14.623,11.896,26.519,26.519,26.519
			c14.623,0,26.519-11.897,26.519-26.519C66.362,281.196,54.466,269.299,39.843,269.299z M39.843,307.327
			c-6.346,0-11.508-5.163-11.508-11.508c0-6.346,5.163-11.508,11.508-11.508c6.346,0,11.508,5.163,11.508,11.508
			C51.351,302.164,46.189,307.327,39.843,307.327z"/>
	</g>
</g>
<g>
	<g>
		<path d="M333.175,105.407c-14.623,0-26.519,11.897-26.519,26.519c0,14.623,11.897,26.519,26.519,26.519
			c14.623,0,26.519-11.897,26.519-26.519C359.694,117.303,347.797,105.407,333.175,105.407z M333.175,143.434
			c-6.346,0-11.508-5.163-11.508-11.508c0-6.346,5.163-11.508,11.508-11.508c6.346,0,11.508,5.163,11.508,11.508
			C344.683,138.272,339.52,143.434,333.175,143.434z"/>
	</g>
</g>
<g>
	<g>
		<path d="M452.57,0c-14.624,0-26.519,11.897-26.519,26.519c0,14.623,11.897,26.519,26.519,26.519
			c14.623,0,26.519-11.897,26.519-26.519C479.089,11.897,467.193,0,452.57,0z M452.57,38.028c-6.346,0-11.508-5.163-11.508-11.508
			c0-6.346,5.164-11.508,11.508-11.508c6.346,0,11.508,5.163,11.508,11.508C464.078,32.865,458.915,38.028,452.57,38.028z"/>
	</g>
</g>
<g>
	<g>
		<path d="M80.279,162.481c-14.623,0-26.519,11.897-26.519,26.519c0,14.623,11.897,26.519,26.519,26.519
			c14.623,0,26.519-11.897,26.519-26.519C106.798,174.378,94.901,162.481,80.279,162.481z M80.279,200.509
			c-6.346,0-11.508-5.163-11.508-11.508c0-6.346,5.163-11.508,11.508-11.508s11.508,5.163,11.508,11.508
			C91.787,195.346,86.624,200.509,80.279,200.509z"/>
	</g>
</g>
<g>
	<g>
		<path d="M476.634,195.447c-14.623,0-26.519,11.896-26.519,26.519c0,14.623,11.897,26.519,26.519,26.519
			c14.623,0,26.519-11.897,26.519-26.519C503.154,207.344,491.257,195.447,476.634,195.447z M476.634,233.475
			c-6.346,0-11.508-5.163-11.508-11.508c0-6.346,5.163-11.508,11.508-11.508c6.346,0,11.508,5.163,11.508,11.508
			C488.143,228.312,482.98,233.475,476.634,233.475z"/>
	</g>
</g>
<g>
	<g>
		<path d="M333.175,223.653c-14.623,0-26.519,11.897-26.519,26.519c0,14.623,11.897,26.519,26.519,26.519
			c14.623,0,26.519-11.897,26.519-26.519C359.694,235.55,347.797,223.653,333.175,223.653z M333.175,261.681
			c-6.346,0-11.508-5.163-11.508-11.508c0-6.346,5.163-11.508,11.508-11.508c6.346,0,11.508,5.163,11.508,11.508
			C344.683,256.518,339.52,261.681,333.175,261.681z"/>
	</g>
</g>
<g>
	<g>
		<path d="M39.843,19.411c-14.623,0-26.519,11.897-26.519,26.519c0,14.623,11.896,26.519,26.519,26.519
			c14.623,0,26.519-11.897,26.519-26.519C66.362,31.308,54.466,19.411,39.843,19.411z M39.843,57.439
			c-6.346,0-11.508-5.163-11.508-11.508s5.163-11.508,11.508-11.508c6.346,0,11.508,5.163,11.508,11.508
			S46.189,57.439,39.843,57.439z"/>
	</g>
</g>
<g>
</g>
<g>
</g>
<g>
</g>
<g>
</g>
<g>
</g>
<g>
</g>
<g>
</g>
<g>
</g>
<g>
</g>
<g>
</g>
<g>
</g>
<g>
</g>
<g>
</g>
<g>
</g>
<g>
</g>
</svg>
